<?xml version="1.0" encoding="utf-8"?>
<!-- Generator: Adobe Illustrator 18.0.0, SVG Export Plug-In . SVG Version: 6.00 Build 0)  -->
<!DOCTYPE svg PUBLIC "-//W3C//DTD SVG 1.1//EN" "http://www.w3.org/Graphics/SVG/1.1/DTD/svg11.dtd">
<svg version="1.1" id="Layer_1" xmlns="http://www.w3.org/2000/svg" xmlns:xlink="http://www.w3.org/1999/xlink" x="0px" y="0px"
	 viewBox="0 0 256 256" style="enable-background:new 0 0 256 256;" xml:space="preserve">
<g>
	<path d="M128,10c31.5,0,61.2,12.3,83.4,34.6C233.7,66.8,246,96.5,246,128s-12.3,61.2-34.6,83.4C189.2,233.7,159.5,246,128,246
		s-61.2-12.3-83.4-34.6C22.3,189.2,10,159.5,10,128s12.3-61.2,34.6-83.4C66.8,22.3,96.5,10,128,10 M128,0C57.3,0,0,57.3,0,128
		s57.3,128,128,128s128-57.3,128-128S198.7,0,128,0L128,0z"/>
</g>
<path d="M68.1,102.5c0,7.3,6.1,13.2,13.4,13.2c7.3,0,13.3-5.9,13.3-13.2c0-7.1-6-13-13.3-13C74.1,89.5,68.1,95.3,68.1,102.5"/>
<path d="M99.7,106v16.3c-0.9,1-25.4,1.9-25.4,1.9c-4.6,0-6.6,2.6-6.6,5.3c0,2.6,2.1,5.2,6.6,5.2h30.8c3.6,0,5.5-2.9,5.5-5.7V106
	c0-4.2-2.9-6.2-5.5-6.2C102.5,99.8,99.7,101.8,99.7,106"/>
<path d="M201.5,100.1c-0.2,0-0.4,0.1-0.6,0.1h-84.5V135h78.3v5.1H62.4V84.5c0-3.8-3-6.8-6.8-6.8c-3.8,0-6.8,3-6.8,6.8v88.7
	c0,3.8,3,6.8,6.8,6.8c3.8,0,6.8-3,6.8-6.8v-18.6h132.3v18.6c0,3.8,3,6.8,6.8,6.8c3.8,0,6.8-3,6.8-6.8v-66.2
	C208.4,103.1,205.3,100.1,201.5,100.1"/>
</svg>
