<?xml version="1.0" encoding="utf-8"?>
<!-- Generator: Adobe Illustrator 18.0.0, SVG Export Plug-In . SVG Version: 6.00 Build 0)  -->
<!DOCTYPE svg PUBLIC "-//W3C//DTD SVG 1.1//EN" "http://www.w3.org/Graphics/SVG/1.1/DTD/svg11.dtd">
<svg version="1.1" id="Layer_1" xmlns="http://www.w3.org/2000/svg" xmlns:xlink="http://www.w3.org/1999/xlink" x="0px" y="0px"
	 viewBox="0 0 22 22" enable-background="new 0 0 22 22" xml:space="preserve">
<g>
	<path d="M11,0.9c2.7,0,5.3,1.1,7.2,3c1.9,1.9,3,4.5,3,7.2s-1.1,5.3-3,7.2c-1.9,1.9-4.5,3-7.2,3s-5.3-1.1-7.2-3
		c-1.9-1.9-3-4.5-3-7.2s1.1-5.3,3-7.2C5.7,1.9,8.3,0.9,11,0.9 M11,0C4.9,0,0,4.9,0,11s4.9,11,11,11s11-4.9,11-11S17.1,0,11,0L11,0z"
		/>
</g>
<path d="M16.6,9.4C16.6,9.4,16.6,9.4,16.6,9.4L16.6,9.4C16.6,9.4,16.6,9.4,16.6,9.4c-0.1,0-0.1,0-0.1,0l-1.6,0
	c0-0.2-0.2-0.4-0.3-0.6c0.4-0.2,0.6-0.6,0.6-1c0-0.7-0.6-1.2-1.2-1.2s-1.2,0.6-1.2,1.2c0,0.4,0.2,0.8,0.6,1C13.1,9,13,9.2,12.9,9.4
	l-7.7,0c0,0-0.1,0-0.1,0c-0.5,0.1-0.8,0.5-0.8,0.9c0,0.4,0.3,0.8,0.6,0.9c0.2,0.6,0.4,1.1,0.5,1.4c0.4,0.9,0.7,1.4,1,1.8
	c-0.2,0.1-0.3,0.3-0.3,0.5c0,0.3,0.3,0.6,0.6,0.6s0.6-0.3,0.6-0.6c0,0,0,0,0,0C7.7,15,8,15,8.4,15h5.9c0.3,0,0.6-0.1,0.9-0.1
	c0,0,0,0,0,0c0,0.3,0.3,0.6,0.6,0.6s0.6-0.3,0.6-0.6c0-0.2-0.1-0.4-0.3-0.5c0.5-0.4,0.8-1.1,0.9-2l0.1-0.9l0-0.4
	c0.3-0.2,0.4-0.5,0.4-0.8C17.5,9.8,17.1,9.4,16.6,9.4z M16.5,10.5L16.5,10.5c-0.1,0-0.2,0-0.2,0.1l-0.1,0.8l-0.1,0.9
	c-0.1,1.2-0.8,1.9-1.9,1.9H8.4c-1.1,0-1.4,0-2.2-1.9c-0.2-0.4-0.4-1-0.6-1.7c0-0.1-0.1-0.1-0.1-0.1H5.3c-0.1,0-0.2-0.1-0.2-0.2
	c0-0.1,0.1-0.2,0.2-0.2c0,0,0,0,0,0h11.3c0.1,0,0.2,0.1,0.2,0.2C16.7,10.4,16.6,10.5,16.5,10.5z"/>
</svg>
