<?xml version="1.0" encoding="utf-8"?>
<!-- Generator: Adobe Illustrator 18.0.0, SVG Export Plug-In . SVG Version: 6.00 Build 0)  -->
<!DOCTYPE svg PUBLIC "-//W3C//DTD SVG 1.1//EN" "http://www.w3.org/Graphics/SVG/1.1/DTD/svg11.dtd">
<svg version="1.1" id="Layer_1" xmlns="http://www.w3.org/2000/svg" xmlns:xlink="http://www.w3.org/1999/xlink" x="0px" y="0px"
	 viewBox="0 0 256 256" style="enable-background:new 0 0 256 256;" xml:space="preserve">
<g>
	<path d="M128,10c31.5,0,61.2,12.3,83.4,34.6C233.7,66.8,246,96.5,246,128s-12.3,61.2-34.6,83.4C189.2,233.7,159.5,246,128,246
		s-61.2-12.3-83.4-34.6C22.3,189.2,10,159.5,10,128s12.3-61.2,34.6-83.4C66.8,22.3,96.5,10,128,10 M128,0C57.3,0,0,57.3,0,128
		s57.3,128,128,128s128-57.3,128-128S198.7,0,128,0L128,0z"/>
</g>
<path d="M193.3,122.8c-0.3-9.6-8-10.8-11.5-11.2c-0.1,0-12.1-27.9-12.1-28.3c-3.2-6.5-6.6-7.6-10.9-7.6h-30.8h-0.5H97
	c-4.2,0-7.7,1.1-10.9,7.6c0,0.4-11.9,28.3-12.1,28.3c-3.4,0.4-11.1,1.6-11.5,11.2l0.1,23c0,5.3,4.1,9.6,9.6,9.6c0,2.2,0,11.6,0,15.3
	v0.3c0.3,5.3,4.1,9.3,9.4,9.3c5.2,0,9.5-4.2,9.5-9.3v-0.3c0-2.6,0-12.5,0-15.4h73.7c0,2.9,0.2,12.7,0.2,15.4v0.3
	c0,5.1,4.2,9.3,9.6,9.3c5.2,0,9.4-4.2,9.4-9.3v-0.3c0-3.7,0-13.1,0-15.3c5.3,0,9.7-4.3,9.7-9.6L193.3,122.8 M93,88.1
	c1.7-3.9,3.6-4,6.2-4.4h57.7c2.7,0.4,4.6,0.5,6.2,4.4l8,20.7h-86L93,88.1 M87,139.3c-5.3,0-9.6-4.2-9.6-9.3c0-5.2,4.2-9.4,9.6-9.4
	c5.3,0,9.6,4.2,9.6,9.4C96.6,135.1,92.3,139.3,87,139.3 M172.7,139.3c-5.3,0-9.6-4.2-9.6-9.3c0-5.2,4.3-9.4,9.6-9.4
	c5.3,0,9.6,4.2,9.6,9.4C182.3,135.1,178.1,139.3,172.7,139.3"/>
</svg>
